<svg version="1.2" xmlns="http://www.w3.org/2000/svg" viewBox="0 0 657 658" width="657" height="658"><style>.a{stroke:#6a737b;stroke-width:3.3}.b{fill:#a19789;stroke:#6a737b;stroke-width:3.4}.c{fill:#949383}</style><path class="a" d="m452.7 309.3c1.6-8.7 3.2-17.2-1.1-28.8-5.1-13.9-15.6-29.8-30.1-44.3-16.2-16.2-34.1-27.3-49-31.7-8.3-2.4-14.6-1.4-21.4-0.8-34.5 1.8-71.5 18.2-101.3 47.9-54.7 54.7-64.2 133.8-21.3 176.6 42.8 42.9 121.9 33.3 176.5-21.3 28.8-28.7 45-64.2 47.7-97.6z"/><path fill-rule="evenodd" class="b" d="m376.7 280.7c-22.8-22.9-33.2-49.4-23.2-59.4 10-10 36.6 0.4 59.4 23.2 22.8 22.8 33.2 49.3 23.2 59.3-10 10-36.6-0.3-59.4-23.1z"/><path class="c" d="m344.1 212c-30.3 3.7-61.9 18.8-87.7 44.6-52.3 52.4-60.9 128.7-19 170.5 3.2 3.3 6.8 6.2 10.5 8.9-40.1-42.1-31.2-117.2 20.5-168.9 21.7-21.7 47.4-35.8 73.1-42z"/></svg>